<svg width="20" height="20" viewBox="0 0 20 20" fill="none" xmlns="http://www.w3.org/2000/svg">
<g id="et:linkedin" clip-path="url(#clip0_307_239)">
<g id="Group">
<path id="Vector" d="M10.5588 8.13727V8.34727L9.36126 8.13727H9.86126H10.0588H10.5588Z" fill="#0F4C81" stroke="#0F4C81"/>
<g id="Vector_2">
<mask id="path-2-inside-1_307_239" fill="white">
<path d="M10 -0.0214844C4.47376 -0.0214844 -0.0212402 4.47352 -0.0212402 9.99977C-0.0212402 15.526 4.47376 20.021 10 20.021C15.5263 20.021 20.0213 15.526 20.0213 9.99977C20.0213 4.47352 15.5263 -0.0214844 10 -0.0214844ZM10 19.3535C4.84251 19.3535 0.64626 15.1573 0.64626 9.99977C0.64626 4.84227 4.84251 0.646016 10 0.646016C15.1575 0.646016 19.3538 4.84227 19.3538 9.99977C19.3538 15.1573 15.1575 19.3535 10 19.3535Z"/>
</mask>
<path d="M10 -0.0214844C4.47376 -0.0214844 -0.0212402 4.47352 -0.0212402 9.99977C-0.0212402 15.526 4.47376 20.021 10 20.021C15.5263 20.021 20.0213 15.526 20.0213 9.99977C20.0213 4.47352 15.5263 -0.0214844 10 -0.0214844ZM10 19.3535C4.84251 19.3535 0.64626 15.1573 0.64626 9.99977C0.64626 4.84227 4.84251 0.646016 10 0.646016C15.1575 0.646016 19.3538 4.84227 19.3538 9.99977C19.3538 15.1573 15.1575 19.3535 10 19.3535Z" fill="#0F4C81"/>
<path d="M10 -1.02148C3.92148 -1.02148 -1.02124 3.92123 -1.02124 9.99977H0.97876C0.97876 5.0258 5.02604 0.978516 10 0.978516V-1.02148ZM-1.02124 9.99977C-1.02124 16.0783 3.92148 21.021 10 21.021V19.021C5.02604 19.021 0.97876 14.9737 0.97876 9.99977H-1.02124ZM10 21.021C16.0785 21.021 21.0213 16.0783 21.0213 9.99977H19.0213C19.0213 14.9737 14.974 19.021 10 19.021V21.021ZM21.0213 9.99977C21.0213 3.92123 16.0785 -1.02148 10 -1.02148V0.978516C14.974 0.978516 19.0213 5.0258 19.0213 9.99977H21.0213ZM10 18.3535C5.39479 18.3535 1.64626 14.605 1.64626 9.99977H-0.35374C-0.35374 15.7096 4.29023 20.3535 10 20.3535V18.3535ZM1.64626 9.99977C1.64626 5.39455 5.39479 1.64602 10 1.64602V-0.353984C4.29023 -0.353984 -0.35374 4.28998 -0.35374 9.99977H1.64626ZM10 1.64602C14.6052 1.64602 18.3538 5.39455 18.3538 9.99977H20.3538C20.3538 4.28998 15.7098 -0.353984 10 -0.353984V1.64602ZM18.3538 9.99977C18.3538 14.605 14.6052 18.3535 10 18.3535V20.3535C15.7098 20.3535 20.3538 15.7096 20.3538 9.99977H18.3538Z" fill="#0F4C81" mask="url(#path-2-inside-1_307_239)"/>
</g>
</g>
</g>
<defs>
<clipPath id="clip0_307_239">
<rect width="20" height="20" fill="white"/>
</clipPath>
</defs>
</svg>
