<svg width="20" height="20" viewBox="0 0 20 20" fill="none" xmlns="http://www.w3.org/2000/svg">
<g id="iconoir:instagram">
<g id="Group">
<path id="Vector" d="M9.99935 13.3327C10.8834 13.3327 11.7313 12.9815 12.3564 12.3564C12.9815 11.7313 13.3327 10.8834 13.3327 9.99935C13.3327 9.11529 12.9815 8.26745 12.3564 7.64233C11.7313 7.0172 10.8834 6.66602 9.99935 6.66602C9.11529 6.66602 8.26745 7.0172 7.64233 7.64233C7.0172 8.26745 6.66602 9.11529 6.66602 9.99935C6.66602 10.8834 7.0172 11.7313 7.64233 12.3564C8.26745 12.9815 9.11529 13.3327 9.99935 13.3327Z" stroke="#0F4C81" stroke-linecap="round" stroke-linejoin="round"/>
<path id="Vector_2" d="M2.5 13.3333V6.66667C2.5 5.5616 2.93899 4.50179 3.72039 3.72039C4.50179 2.93899 5.5616 2.5 6.66667 2.5H13.3333C14.4384 2.5 15.4982 2.93899 16.2796 3.72039C17.061 4.50179 17.5 5.5616 17.5 6.66667V13.3333C17.5 14.4384 17.061 15.4982 16.2796 16.2796C15.4982 17.061 14.4384 17.5 13.3333 17.5H6.66667C5.5616 17.5 4.50179 17.061 3.72039 16.2796C2.93899 15.4982 2.5 14.4384 2.5 13.3333Z" stroke="#0F4C81"/>
<path id="Vector_3" d="M14.583 5.42518L14.5913 5.41602" stroke="#0F4C81" stroke-linecap="round" stroke-linejoin="round"/>
</g>
</g>
</svg>
